<svg viewBox="0 0 800 500" xmlns="http://www.w3.org/2000/svg">
  <!-- Background -->
  <rect x="0" y="0" width="800" height="500" fill="#f5f5f5"/>
  
  <!-- Title -->
  <text x="400" y="50" font-family="Arial" font-size="24" font-weight="bold" text-anchor="middle" fill="#333">LiDAR Technology: How It Works</text>
  
  <!-- Sky gradient -->
  <defs>
    <linearGradient id="skyGradient" x1="0%" y1="0%" x2="0%" y2="100%">
      <stop offset="0%" style="stop-color:#87CEEB;stop-opacity:1" />
      <stop offset="100%" style="stop-color:#E0F7FA;stop-opacity:1" />
    </linearGradient>
  </defs>
  <rect x="50" y="100" width="700" height="300" fill="url(#skyGradient)" rx="5" ry="5"/>
  
  <!-- Ground with sugarcane field -->
  <rect x="50" y="320" width="700" height="80" fill="#8B4513" rx="0" ry="0"/>
  
  <!-- Sugarcane field rows -->
  <g opacity="0.9">
    <rect x="80" y="330" width="640" height="5" fill="#556B2F" />
    <rect x="80" y="345" width="640" height="5" fill="#556B2F" />
    <rect x="80" y="360" width="640" height="5" fill="#556B2F" />
    <rect x="80" y="375" width="640" height="5" fill="#556B2F" />
    <rect x="80" y="390" width="640" height="5" fill="#556B2F" />
  </g>
  
  <!-- Sugarcane plants (simplified) -->
  <g>
    <!-- Row 1 -->
    <g>
      <line x1="100" y1="330" x2="100" y2="300" stroke="#9ACD32" stroke-width="2" />
      <line x1="150" y1="330" x2="150" y2="290" stroke="#9ACD32" stroke-width="2" />
      <line x1="200" y1="330" x2="200" y2="295" stroke="#9ACD32" stroke-width="2" />
      <line x1="250" y1="330" x2="250" y2="285" stroke="#9ACD32" stroke-width="2" />
      <line x1="300" y1="330" x2="300" y2="300" stroke="#9ACD32" stroke-width="2" />
      <line x1="350" y1="330" x2="350" y2="290" stroke="#9ACD32" stroke-width="2" />
      <line x1="400" y1="330" x2="400" y2="305" stroke="#9ACD32" stroke-width="2" />
      <line x1="450" y1="330" x2="450" y2="295" stroke="#9ACD32" stroke-width="2" />
      <line x1="500" y1="330" x2="500" y2="300" stroke="#9ACD32" stroke-width="2" />
      <line x1="550" y1="330" x2="550" y2="290" stroke="#9ACD32" stroke-width="2" />
      <line x1="600" y1="330" x2="600" y2="295" stroke="#9ACD32" stroke-width="2" />
      <line x1="650" y1="330" x2="650" y2="305" stroke="#9ACD32" stroke-width="2" />
      <line x1="700" y1="330" x2="700" y2="300" stroke="#9ACD32" stroke-width="2" />
    </g>
  </g>
  
  <!-- UAV with LiDAR -->
  <g transform="translate(150, 180)">
    <!-- Drone body -->
    <rect x="-15" y="-5" width="30" height="10" rx="5" fill="#333" />
    <circle cx="0" cy="0" r="6" fill="#444" />
    
    <!-- Rotors -->
    <g>
      <!-- Top left rotor -->
      <circle cx="-20" cy="-20" r="4" fill="#666" />
      <line x1="-24" y1="-20" x2="-16" y2="-20" stroke="#999" stroke-width="1" />
      <line x1="-20" y1="-24" x2="-20" y2="-16" stroke="#999" stroke-width="1" />
    </g>
    
    <g>
      <!-- Top right rotor -->
      <circle cx="20" cy="-20" r="4" fill="#666" />
      <line x1="16" y1="-20" x2="24" y2="-20" stroke="#999" stroke-width="1" />
      <line x1="20" y1="-24" x2="20" y2="-16" stroke="#999" stroke-width="1" />
    </g>
    
    <g>
      <!-- Bottom left rotor -->
      <circle cx="-20" cy="20" r="4" fill="#666" />
      <line x1="-24" y1="20" x2="-16" y2="20" stroke="#999" stroke-width="1" />
      <line x1="-20" y1="16" x2="-20" y2="24" stroke="#999" stroke-width="1" />
    </g>
    
    <g>
      <!-- Bottom right rotor -->
      <circle cx="20" cy="20" r="4" fill="#666" />
      <line x1="16" y1="20" x2="24" y2="20" stroke="#999" stroke-width="1" />
      <line x1="20" y1="16" x2="20" y2="24" stroke="#999" stroke-width="1" />
    </g>
    
    <!-- Arms -->
    <line x1="0" y1="0" x2="-20" y2="-20" stroke="#555" stroke-width="2" />
    <line x1="0" y1="0" x2="20" y2="-20" stroke="#555" stroke-width="2" />
    <line x1="0" y1="0" x2="-20" y2="20" stroke="#555" stroke-width="2" />
    <line x1="0" y1="0" x2="20" y2="20" stroke="#555" stroke-width="2" />
    
    <!-- LiDAR sensor -->
    <rect x="-8" y="8" width="16" height="8" rx="2" fill="#222" />
    <circle cx="0" cy="12" r="4" fill="#444" stroke="#222" />
  </g>
  
  <!-- LiDAR pulses animation -->
  <g>
    <!-- Pulse 1 - represents a completed round-trip -->
    <line x1="150" y1="192" x2="150" y2="320" stroke="#FF4500" stroke-width="1.5" stroke-dasharray="4,4">
      <animate attributeName="stroke-dashoffset" from="0" to="8" dur="1s" repeatCount="indefinite" />
    </line>
    <circle cx="150" cy="320" r="3" fill="#FF4500">
      <animate attributeName="opacity" values="1;0.2;1" dur="1s" repeatCount="indefinite" />
    </circle>
    
    <!-- Pulse 2 -->
    <line x1="150" y1="192" x2="175" y2="295" stroke="#FF4500" stroke-width="1.5" stroke-dasharray="4,4">
      <animate attributeName="stroke-dashoffset" from="0" to="8" dur="1.2s" repeatCount="indefinite" />
    </line>
    <circle cx="175" cy="295" r="3" fill="#FF4500">
      <animate attributeName="opacity" values="1;0.2;1" dur="1.2s" repeatCount="indefinite" />
    </circle>
    
    <!-- Pulse 3 -->
    <line x1="150" y1="192" x2="200" y2="295" stroke="#FF4500" stroke-width="1.5" stroke-dasharray="4,4">
      <animate attributeName="stroke-dashoffset" from="0" to="8" dur="0.8s" repeatCount="indefinite" />
    </line>
    <circle cx="200" cy="295" r="3" fill="#FF4500">
      <animate attributeName="opacity" values="1;0.2;1" dur="0.8s" repeatCount="indefinite" />
    </circle>
    
    <!-- Pulse 4 -->
    <line x1="150" y1="192" x2="125" y2="300" stroke="#FF4500" stroke-width="1.5" stroke-dasharray="4,4">
      <animate attributeName="stroke-dashoffset" from="0" to="8" dur="1.5s" repeatCount="indefinite" />
    </line>
    <circle cx="125" cy="300" r="3" fill="#FF4500">
      <animate attributeName="opacity" values="1;0.2;1" dur="1.5s" repeatCount="indefinite" />
    </circle>
    
    <!-- Pulse 5 -->
    <line x1="150" y1="192" x2="225" y2="300" stroke="#FF4500" stroke-width="1.5" stroke-dasharray="4,4">
      <animate attributeName="stroke-dashoffset" from="0" to="8" dur="0.9s" repeatCount="indefinite" />
    </line>
    <circle cx="225" cy="300" r="3" fill="#FF4500">
      <animate attributeName="opacity" values="1;0.2;1" dur="0.9s" repeatCount="indefinite" />
    </circle>
  </g>
  
  <!-- Point cloud visualization -->
  <g transform="translate(500, 250)">
    <!-- Point cloud title -->
    <text x="0" y="-90" font-family="Arial" font-size="16" font-weight="bold" text-anchor="middle" fill="#333">Resulting Point Cloud</text>
    
    <!-- Container -->
    <rect x="-100" y="-80" width="200" height="150" fill="#FFFFFF" stroke="#CCCCCC" stroke-width="1" rx="5" ry="5" />
    
    <!-- 3D Coordinate System -->
    <line x1="-80" y1="50" x2="80" y2="50" stroke="#333" stroke-width="1" /> <!-- X-axis -->
    <line x1="-80" y1="50" x2="-80" y2="-50" stroke="#333" stroke-width="1" /> <!-- Y-axis -->
    <line x1="-80" y1="50" x2="-40" y2="20" stroke="#333" stroke-width="1" /> <!-- Z-axis -->
    
    <text x="75" y="65" font-family="Arial" font-size="10" fill="#333">X</text>
    <text x="-95" y="-40" font-family="Arial" font-size="10" fill="#333">Y</text>
    <text x="-35" y="25" font-family="Arial" font-size="10" fill="#333">Z</text>
    
    <!-- Point cloud points -->
    <g>
      <!-- Ground points (brown) -->
      <circle cx="-60" cy="50" r="2" fill="#8B4513" />
      <circle cx="-50" cy="50" r="2" fill="#8B4513" />
      <circle cx="-40" cy="50" r="2" fill="#8B4513" />
      <circle cx="-30" cy="50" r="2" fill="#8B4513" />
      <circle cx="-20" cy="50" r="2" fill="#8B4513" />
      <circle cx="-10" cy="50" r="2" fill="#8B4513" />
      <circle cx="0" cy="50" r="2" fill="#8B4513" />
      <circle cx="10" cy="50" r="2" fill="#8B4513" />
      <circle cx="20" cy="50" r="2" fill="#8B4513" />
      <circle cx="30" cy="50" r="2" fill="#8B4513" />
      <circle cx="40" cy="50" r="2" fill="#8B4513" />
      <circle cx="50" cy="50" r="2" fill="#8B4513" />
      <circle cx="60" cy="50" r="2" fill="#8B4513" />
      
      <!-- Vegetation points (green) -->
      <!-- Sugarcane 1 -->
      <circle cx="-50" cy="35" r="2" fill="#32CD32" />
      <circle cx="-50" cy="30" r="2" fill="#32CD32" />
      <circle cx="-50" cy="25" r="2" fill="#32CD32" />
      <circle cx="-50" cy="20" r="2" fill="#32CD32" />
      
      <!-- Sugarcane 2 -->
      <circle cx="-20" cy="40" r="2" fill="#32CD32" />
      <circle cx="-20" cy="35" r="2" fill="#32CD32" />
      <circle cx="-20" cy="30" r="2" fill="#32CD32" />
      <circle cx="-20" cy="25" r="2" fill="#32CD32" />
      <circle cx="-20" cy="20" r="2" fill="#32CD32" />
      <circle cx="-20" cy="15" r="2" fill="#32CD32" />
      
      <!-- Sugarcane 3 -->
      <circle cx="10" cy="38" r="2" fill="#32CD32" />
      <circle cx="10" cy="33" r="2" fill="#32CD32" />
      <circle cx="10" cy="28" r="2" fill="#32CD32" />
      <circle cx="10" cy="23" r="2" fill="#32CD32" />
      <circle cx="10" cy="18" r="2" fill="#32CD32" />
      
      <!-- Sugarcane 4 -->
      <circle cx="40" cy="42" r="2" fill="#32CD32" />
      <circle cx="40" cy="37" r="2" fill="#32CD32" />
      <circle cx="40" cy="32" r="2" fill="#32CD32" />
      <circle cx="40" cy="27" r="2" fill="#32CD32" />
      <circle cx="40" cy="22" r="2" fill="#32CD32" />
      <circle cx="40" cy="17" r="2" fill="#32CD32" />
      <circle cx="40" cy="12" r="2" fill="#32CD32" />
    </g>
  </g>
  
  <!-- Explanation text boxes -->
  <g>
    <!-- Step 1: Emitting Laser -->
    <rect x="50" y="120" width="180" height="40" rx="5" ry="5" fill="#FFFFFF" stroke="#4CAF50" stroke-width="1.5" />
    <text x="140" y="135" font-family="Arial" font-size="12" font-weight="bold" text-anchor="middle" fill="#333">Step 1: Emit Laser Pulses</text>
    <text x="140" y="150" font-family="Arial" font-size="10" text-anchor="middle" fill="#555">Hundreds of thousands per second</text>
    
    <!-- Step 2: Return Time -->
    <rect x="310" y="120" width="180" height="40" rx="5" ry="5" fill="#FFFFFF" stroke="#4CAF50" stroke-width="1.5" />
    <text x="400" y="135" font-family="Arial" font-size="12" font-weight="bold" text-anchor="middle" fill="#333">Step 2: Measure Return Time</text>
    <text x="400" y="150" font-family="Arial" font-size="10" text-anchor="middle" fill="#555">Distance = (Speed of Light ร Time) รท 2</text>
    
    <!-- Step 3: Point Cloud -->
    <rect x="570" y="120" width="180" height="40" rx="5" ry="5" fill="#FFFFFF" stroke="#4CAF50" stroke-width="1.5" />
    <text x="660" y="135" font-family="Arial" font-size="12" font-weight="bold" text-anchor="middle" fill="#333">Step 3: Create Point Cloud</text>
    <text x="660" y="150" font-family="Arial" font-size="10" text-anchor="middle" fill="#555">3D representation of surfaces</text>
  </g>
  
  <!-- LiDAR data processing steps -->
  <g transform="translate(400, 420)">
    <text x="0" y="0" font-family="Arial" font-size="16" font-weight="bold" text-anchor="middle" fill="#333">LiDAR Data Processing for Sugarcane Analysis</text>
    
    <!-- Process flow -->
    <g transform="translate(0, 15)">
      <rect x="-350" y="0" width="100" height="30" rx="15" ry="15" fill="#D1E7DD" stroke="#198754" stroke-width="1" />
      <text x="-300" y="20" font-family="Arial" font-size="12" text-anchor="middle" fill="#333">Point Cloud</text>
      
      <polygon points="-240,15 -230,10 -230,20" fill="#198754" />
      <line x1="-250" y1="15" x2="-230" y2="15" stroke="#198754" stroke-width="1" />
      
      <rect x="-220" y="0" width="100" height="30" rx="15" ry="15" fill="#D1E7DD" stroke="#198754" stroke-width="1" />
      <text x="-170" y="20" font-family="Arial" font-size="12" text-anchor="middle" fill="#333">Filtering</text>
      
      <polygon points="-110,15 -100,10 -100,20" fill="#198754" />
      <line x1="-120" y1="15" x2="-100" y2="15" stroke="#198754" stroke-width="1" />
      
      <rect x="-90" y="0" width="100" height="30" rx="15" ry="15" fill="#D1E7DD" stroke="#198754" stroke-width="1" />
      <text x="-40" y="20" font-family="Arial" font-size="12" text-anchor="middle" fill="#333">Height Models</text>
      
      <polygon points="20,15 30,10 30,20" fill="#198754" />
      <line x1="10" y1="15" x2="30" y2="15" stroke="#198754" stroke-width="1" />
      
      <rect x="40" y="0" width="100" height="30" rx="15" ry="15" fill="#D1E7DD" stroke="#198754" stroke-width="1" />
      <text x="90" y="20" font-family="Arial" font-size="12" text-anchor="middle" fill="#333">Metrics</text>
      
      <polygon points="150,15 160,10 160,20" fill="#198754" />
      <line x1="140" y1="15" x2="160" y2="15" stroke="#198754" stroke-width="1" />
      
      <rect x="170" y="0" width="100" height="30" rx="15" ry="15" fill="#D1E7DD" stroke="#198754" stroke-width="1" />
      <text x="220" y="20" font-family="Arial" font-size="12" text-anchor="middle" fill="#333">3D Analysis</text>
      
      <polygon points="280,15 290,10 290,20" fill="#198754" />
      <line x1="270" y1="15" x2="290" y2="15" stroke="#198754" stroke-width="1" />
      
      <rect x="300" y="0" width="100" height="30" rx="15" ry="15" fill="#D1E7DD" stroke="#198754" stroke-width="1" />
      <text x="350" y="20" font-family="Arial" font-size="12" text-anchor="middle" fill="#333">Biomass Maps</text>
    </g>
  </g>
  
  <!-- Footer text -->
  <text x="400" y="490" font-family="Arial" font-size="10" text-anchor="middle" fill="#666">Typical LiDAR systems for agricultural applications use near-infrared laser pulses (905nm wavelength)</text>
</svg>
