<svg viewBox="0 0 800 400" xmlns="http://www.w3.org/2000/svg">
  <!-- Sky Background -->
  <rect x="0" y="0" width="800" height="200" fill="#87CEEB" />
  
  <!-- Sun -->
  <circle cx="700" cy="80" r="40" fill="#FFD700" />
  <circle cx="700" cy="80" r="50" fill="#FFD700" opacity="0.3" />
  
  <!-- Distant Mountains -->
  <polygon points="0,200 100,150 200,180 300,140 400,170 500,140 600,160 700,130 800,190 800,200" fill="#6B8E23" opacity="0.5" />
  
  <!-- Main Field Background -->
  <rect x="0" y="200" width="800" height="200" fill="#8B4513" />
  
  <!-- Sugarcane Field Rows - Back -->
  <g opacity="0.8">
    <rect x="50" y="210" width="700" height="10" fill="#556B2F" />
    <rect x="50" y="230" width="700" height="10" fill="#556B2F" />
    <rect x="50" y="250" width="700" height="10" fill="#556B2F" />
    <rect x="50" y="270" width="700" height="10" fill="#556B2F" />
  </g>
  
  <!-- Sugarcane Plants - Far -->
  <g>
    <!-- Row 1 -->
    <g opacity="0.7">
      <line x1="100" y1="210" x2="100" y2="180" stroke="#9ACD32" stroke-width="2" />
      <line x1="100" y1="190" x2="90" y2="175" stroke="#9ACD32" stroke-width="1" />
      <line x1="100" y1="190" x2="110" y2="175" stroke="#9ACD32" stroke-width="1" />
      <line x1="100" y1="185" x2="95" y2="170" stroke="#9ACD32" stroke-width="1" />
      <line x1="100" y1="185" x2="105" y2="170" stroke="#9ACD32" stroke-width="1" />
    </g>
    
    <g opacity="0.7">
      <line x1="200" y1="210" x2="200" y2="175" stroke="#9ACD32" stroke-width="2" />
      <line x1="200" y1="190" x2="190" y2="170" stroke="#9ACD32" stroke-width="1" />
      <line x1="200" y1="190" x2="210" y2="170" stroke="#9ACD32" stroke-width="1" />
      <line x1="200" y1="185" x2="195" y2="165" stroke="#9ACD32" stroke-width="1" />
      <line x1="200" y1="185" x2="205" y2="165" stroke="#9ACD32" stroke-width="1" />
    </g>
    
    <!-- More plants with varied heights -->
    <g opacity="0.7">
      <line x1="300" y1="210" x2="300" y2="170" stroke="#9ACD32" stroke-width="2" />
      <line x1="300" y1="190" x2="290" y2="168" stroke="#9ACD32" stroke-width="1" />
      <line x1="300" y1="190" x2="310" y2="168" stroke="#9ACD32" stroke-width="1" />
      <line x1="300" y1="180" x2="295" y2="160" stroke="#9ACD32" stroke-width="1" />
      <line x1="300" y1="180" x2="305" y2="160" stroke="#9ACD32" stroke-width="1" />
    </g>
    
    <g opacity="0.7">
      <line x1="400" y1="210" x2="400" y2="178" stroke="#9ACD32" stroke-width="2" />
      <line x1="400" y1="190" x2="390" y2="172" stroke="#9ACD32" stroke-width="1" />
      <line x1="400" y1="190" x2="410" y2="172" stroke="#9ACD32" stroke-width="1" />
      <line x1="400" y1="185" x2="395" y2="168" stroke="#9ACD32" stroke-width="1" />
      <line x1="400" y1="185" x2="405" y2="168" stroke="#9ACD32" stroke-width="1" />
    </g>
    
    <g opacity="0.7">
      <line x1="500" y1="210" x2="500" y2="176" stroke="#9ACD32" stroke-width="2" />
      <line x1="500" y1="190" x2="490" y2="171" stroke="#9ACD32" stroke-width="1" />
      <line x1="500" y1="190" x2="510" y2="171" stroke="#9ACD32" stroke-width="1" />
      <line x1="500" y1="180" x2="495" y2="165" stroke="#9ACD32" stroke-width="1" />
      <line x1="500" y1="180" x2="505" y2="165" stroke="#9ACD32" stroke-width="1" />
    </g>
    
    <g opacity="0.7">
      <line x1="600" y1="210" x2="600" y2="173" stroke="#9ACD32" stroke-width="2" />
      <line x1="600" y1="195" x2="590" y2="173" stroke="#9ACD32" stroke-width="1" />
      <line x1="600" y1="195" x2="610" y2="173" stroke="#9ACD32" stroke-width="1" />
      <line x1="600" y1="185" x2="595" y2="163" stroke="#9ACD32" stroke-width="1" />
      <line x1="600" y1="185" x2="605" y2="163" stroke="#9ACD32" stroke-width="1" />
    </g>
    
    <g opacity="0.7">
      <line x1="700" y1="210" x2="700" y2="177" stroke="#9ACD32" stroke-width="2" />
      <line x1="700" y1="195" x2="690" y2="172" stroke="#9ACD32" stroke-width="1" />
      <line x1="700" y1="195" x2="710" y2="172" stroke="#9ACD32" stroke-width="1" />
      <line x1="700" y1="185" x2="695" y2="167" stroke="#9ACD32" stroke-width="1" />
      <line x1="700" y1="185" x2="705" y2="167" stroke="#9ACD32" stroke-width="1" />
    </g>
  </g>
  
  <!-- Sugarcane Field Rows - Middle -->
  <g opacity="0.9">
    <rect x="50" y="290" width="700" height="15" fill="#556B2F" />
    <rect x="50" y="315" width="700" height="15" fill="#556B2F" />
    <rect x="50" y="340" width="700" height="15" fill="#556B2F" />
  </g>
  
  <!-- Sugarcane Plants - Closer -->
  <g>
    <!-- Row 1 -->
    <g>
      <line x1="80" y1="290" x2="80" y2="245" stroke="#9ACD32" stroke-width="3" />
      <line x1="80" y1="265" x2="70" y2="240" stroke="#9ACD32" stroke-width="2" />
      <line x1="80" y1="265" x2="90" y2="240" stroke="#9ACD32" stroke-width="2" />
      <line x1="80" y1="255" x2="75" y2="235" stroke="#9ACD32" stroke-width="2" />
      <line x1="80" y1="255" x2="85" y2="235" stroke="#9ACD32" stroke-width="2" />
    </g>
    
    <g>
      <line x1="160" y1="290" x2="160" y2="240" stroke="#9ACD32" stroke-width="3" />
      <line x1="160" y1="265" x2="150" y2="235" stroke="#9ACD32" stroke-width="2" />
      <line x1="160" y1="265" x2="170" y2="235" stroke="#9ACD32" stroke-width="2" />
      <line x1="160" y1="255" x2="155" y2="230" stroke="#9ACD32" stroke-width="2" />
      <line x1="160" y1="255" x2="165" y2="230" stroke="#9ACD32" stroke-width="2" />
    </g>
    
    <!-- More plants with varied heights -->
    <g>
      <line x1="240" y1="290" x2="240" y2="235" stroke="#9ACD32" stroke-width="3" />
      <line x1="240" y1="265" x2="230" y2="230" stroke="#9ACD32" stroke-width="2" />
      <line x1="240" y1="265" x2="250" y2="230" stroke="#9ACD32" stroke-width="2" />
      <line x1="240" y1="250" x2="235" y2="225" stroke="#9ACD32" stroke-width="2" />
      <line x1="240" y1="250" x2="245" y2="225" stroke="#9ACD32" stroke-width="2" />
    </g>
    
    <g>
      <line x1="320" y1="290" x2="320" y2="238" stroke="#9ACD32" stroke-width="3" />
      <line x1="320" y1="265" x2="310" y2="233" stroke="#9ACD32" stroke-width="2" />
      <line x1="320" y1="265" x2="330" y2="233" stroke="#9ACD32" stroke-width="2" />
      <line x1="320" y1="250" x2="315" y2="228" stroke="#9ACD32" stroke-width="2" />
      <line x1="320" y1="250" x2="325" y2="228" stroke="#9ACD32" stroke-width="2" />
    </g>
    
    <g>
      <line x1="400" y1="290" x2="400" y2="230" stroke="#9ACD32" stroke-width="3" />
      <line x1="400" y1="260" x2="390" y2="225" stroke="#9ACD32" stroke-width="2" />
      <line x1="400" y1="260" x2="410" y2="225" stroke="#9ACD32" stroke-width="2" />
      <line x1="400" y1="245" x2="395" y2="220" stroke="#9ACD32" stroke-width="2" />
      <line x1="400" y1="245" x2="405" y2="220" stroke="#9ACD32" stroke-width="2" />
    </g>
    
    <g>
      <line x1="480" y1="290" x2="480" y2="232" stroke="#9ACD32" stroke-width="3" />
      <line x1="480" y1="265" x2="470" y2="227" stroke="#9ACD32" stroke-width="2" />
      <line x1="480" y1="265" x2="490" y2="227" stroke="#9ACD32" stroke-width="2" />
      <line x1="480" y1="250" x2="475" y2="222" stroke="#9ACD32" stroke-width="2" />
      <line x1="480" y1="250" x2="485" y2="222" stroke="#9ACD32" stroke-width="2" />
    </g>
    
    <g>
      <line x1="560" y1="290" x2="560" y2="235" stroke="#9ACD32" stroke-width="3" />
      <line x1="560" y1="265" x2="550" y2="230" stroke="#9ACD32" stroke-width="2" />
      <line x1="560" y1="265" x2="570" y2="230" stroke="#9ACD32" stroke-width="2" />
      <line x1="560" y1="250" x2="555" y2="225" stroke="#9ACD32" stroke-width="2" />
      <line x1="560" y1="250" x2="565" y2="225" stroke="#9ACD32" stroke-width="2" />
    </g>
    
    <g>
      <line x1="640" y1="290" x2="640" y2="230" stroke="#9ACD32" stroke-width="3" />
      <line x1="640" y1="265" x2="630" y2="225" stroke="#9ACD32" stroke-width="2" />
      <line x1="640" y1="265" x2="650" y2="225" stroke="#9ACD32" stroke-width="2" />
      <line x1="640" y1="250" x2="635" y2="220" stroke="#9ACD32" stroke-width="2" />
      <line x1="640" y1="250" x2="645" y2="220" stroke="#9ACD32" stroke-width="2" />
    </g>
    
    <g>
      <line x1="720" y1="290" x2="720" y2="232" stroke="#9ACD32" stroke-width="3" />
      <line x1="720" y1="265" x2="710" y2="227" stroke="#9ACD32" stroke-width="2" />
      <line x1="720" y1="265" x2="730" y2="227" stroke="#9ACD32" stroke-width="2" />
      <line x1="720" y1="250" x2="715" y2="222" stroke="#9ACD32" stroke-width="2" />
      <line x1="720" y1="250" x2="725" y2="222" stroke="#9ACD32" stroke-width="2" />
    </g>
  </g>

  <!-- UAV/Drone in the sky -->
  <g transform="translate(300, 100) scale(0.8)">
    <!-- Drone body -->
    <rect x="-20" y="-5" width="40" height="10" rx="5" fill="#333" />
    <circle cx="0" cy="0" r="8" fill="#444" />
    
    <!-- Rotors -->
    <g>
      <!-- Top left rotor -->
      <circle cx="-25" cy="-25" r="5" fill="#666" />
      <line x1="-30" y1="-25" x2="-20" y2="-25" stroke="#999" stroke-width="1" />
      <line x1="-25" y1="-30" x2="-25" y2="-20" stroke="#999" stroke-width="1" />
    </g>
    
    <g>
      <!-- Top right rotor -->
      <circle cx="25" cy="-25" r="5" fill="#666" />
      <line x1="20" y1="-25" x2="30" y2="-25" stroke="#999" stroke-width="1" />
      <line x1="25" y1="-30" x2="25" y2="-20" stroke="#999" stroke-width="1" />
    </g>
    
    <g>
      <!-- Bottom left rotor -->
      <circle cx="-25" cy="25" r="5" fill="#666" />
      <line x1="-30" y1="25" x2="-20" y2="25" stroke="#999" stroke-width="1" />
      <line x1="-25" y1="20" x2="-25" y2="30" stroke="#999" stroke-width="1" />
    </g>
    
    <g>
      <!-- Bottom right rotor -->
      <circle cx="25" cy="25" r="5" fill="#666" />
      <line x1="20" y1="25" x2="30" y2="25" stroke="#999" stroke-width="1" />
      <line x1="25" y1="20" x2="25" y2="30" stroke="#999" stroke-width="1" />
    </g>
    
    <!-- Arms connecting body to rotors -->
    <line x1="0" y1="0" x2="-25" y2="-25" stroke="#555" stroke-width="3" />
    <line x1="0" y1="0" x2="25" y2="-25" stroke="#555" stroke-width="3" />
    <line x1="0" y1="0" x2="-25" y2="25" stroke="#555" stroke-width="3" />
    <line x1="0" y1="0" x2="25" y2="25" stroke="#555" stroke-width="3" />
    
    <!-- Camera underneath -->
    <rect x="-5" y="10" width="10" height="7" rx="2" fill="#222" />
    <circle cx="0" cy="13.5" r="3" fill="#444" stroke="#222" />
  </g>

  <!-- Foreground Field Row -->
  <g>
    <rect x="0" y="365" width="800" height="35" fill="#556B2F" />
  </g>
  
  <!-- Title -->
  <text x="400" y="380" font-family="Arial" font-size="14" fill="white" text-anchor="middle">Sugarcane Fields with UAV Monitoring</text>
</svg>
